<?xml version="1.0" encoding="UTF-8"?>
<!DOCTYPE svg PUBLIC "-//W3C//DTD SVG 1.1//EN" "http://www.w3.org/Graphics/SVG/1.1/DTD/svg11.dtd">
<!-- Creator: CorelDRAW 2021 (64-Bit) -->
<svg xmlns="http://www.w3.org/2000/svg" xml:space="preserve" width="2.78472in" height="1.77735in" version="1.1" style="shape-rendering:geometricPrecision; text-rendering:geometricPrecision; image-rendering:optimizeQuality; fill-rule:evenodd; clip-rule:evenodd"
viewBox="0 0 2784.72 1777.35"
 xmlns:xlink="http://www.w3.org/1999/xlink"
 xmlns:xodm="http://www.corel.com/coreldraw/odm/2003">
 <defs>
  <style type="text/css">
   <![CDATA[
    .fil0 {fill:#16213A}
    .fil1 {fill:#BDF4EA}
   ]]>
  </style>
 </defs>
 <g id="Layer_x0020_1">
  <metadata id="CorelCorpID_0Corel-Layer"/>
  <g id="_1642206868208">
   <path class="fil0" d="M1243.29 0l-718.9 0 0 13.13 60.07 33.5c16.62,8.53 32.44,17.85 48.69,27.04l394.77 223.38c133.47,75.52 269.98,147.01 401.16,226.36 44.99,27.21 93.42,48.76 136.89,78.79 162.7,112.39 199.89,339.71 80.5,497.56 -36.28,47.96 -78,78.06 -130.25,106.3 -215.34,116.42 -423.8,245.34 -639.8,360.6l-319.9 181.26c-10.43,5.91 -21.16,12.17 -32.15,18.63l0 10.81 718.9 0c535.15,0 916.19,-371.73 916.19,-889.94 0,-519.06 -379.35,-887.4 -916.19,-887.4z"/>
   <path class="fil1" d="M-0 232.75l0 1312.98c0,111.83 123.95,232.73 277.25,210.17 62.76,-9.24 158.62,-72.28 222.59,-108.06l321.17 -181.98c208.28,-111.07 432.33,-248.43 640.52,-360.98 37.57,-20.31 67.24,-40.17 93.21,-74.51 77.31,-102.22 58.31,-255.86 -54.14,-333.54 -34.14,-23.58 -94.07,-52.64 -131.05,-75 -114.98,-69.55 -277.12,-156.95 -398.28,-224.67l-394.77 -223.38c-17.73,-9.91 -28.06,-16.46 -46.22,-25.66l-89.22 -49.75c-28.66,-16.54 -57.54,-34.49 -87.98,-50.98 -91.7,-49.68 -209.36,-32.52 -275.32,33.13 -39.06,38.87 -77.77,87.67 -77.77,152.24z"/>
   <polygon class="fil0" points="2244.07,446.59 2558.42,446.59 2558.42,740.47 2784.72,649.32 2784.72,1127.98 2558.42,1050.23 2558.42,1330.71 2244.07,1330.71 "/>
  </g>
 </g>
</svg>
