<svg width="41" height="41" viewBox="0 0 41 41" fill="none" xmlns="http://www.w3.org/2000/svg">
<path fill-rule="evenodd" clip-rule="evenodd" d="M9.11111 41C6.69469 41 4.37725 40.0401 2.66858 38.3314C0.959917 36.6227 0 34.3053 0 31.8889C0 28.5337 3.03628 17.9033 9.11111 0H13.6667L9.11111 22.7778C11.5275 22.7778 13.845 23.7377 15.5536 25.4464C17.2623 27.155 18.2222 29.4725 18.2222 31.8889C18.2222 34.3053 17.2623 36.6227 15.5536 38.3314C13.845 40.0401 11.5275 41 9.11111 41ZM31.8889 41C29.4725 41 27.155 40.0401 25.4464 38.3314C23.7377 36.6227 22.7778 34.3053 22.7778 31.8889C22.7778 28.5337 25.8141 17.9033 31.8889 0H36.4444L31.8889 22.7778C34.3053 22.7778 36.6227 23.7377 38.3314 25.4464C40.0401 27.155 41 29.4725 41 31.8889C41 34.3053 40.0401 36.6227 38.3314 38.3314C36.6227 40.0401 34.3053 41 31.8889 41Z" fill="white" fill-opacity="0.6"/>
</svg>
